<?xml version="1.0" standalone="no"?>
<!DOCTYPE svg PUBLIC "-//W3C//DTD SVG 20010904//EN"
 "http://www.w3.org/TR/2001/REC-SVG-20010904/DTD/svg10.dtd">
<svg version="1.0" xmlns="http://www.w3.org/2000/svg"
 width="209.000000pt" height="241.000000pt" viewBox="0 0 209.000000 241.000000"
 preserveAspectRatio="xMidYMid meet">

<g transform="translate(0.000000,241.000000) scale(0.100000,-0.100000)"
fill="#000000" stroke="none">
<path d="M899 2388 c-145 -51 -159 -77 -159 -303 0 -103 6 -185 15 -230 8 -38
15 -71 15 -71 0 -8 -235 -15 -462 -14 -277 1 -287 0 -298 -19 -11 -22 -3 -118
56 -616 23 -194 40 -308 50 -322 14 -23 18 -23 223 -23 176 0 211 2 221 15 9
11 16 13 23 6 7 -7 6 -15 -2 -25 -9 -11 -11 -41 -7 -108 3 -51 13 -210 22
-353 9 -143 21 -271 28 -285 10 -23 19 -26 101 -33 50 -5 137 -5 195 -2 125 8
99 8 336 -1 l192 -7 15 24 c12 19 18 84 26 289 6 146 11 319 11 385 0 92 3
116 12 107 14 -14 435 -17 457 -3 16 11 23 59 82 578 32 288 38 367 29 378
-11 13 -65 15 -339 15 -179 0 -349 3 -377 6 l-51 6 14 41 c11 31 13 90 11 247
l-3 207 -29 38 c-45 59 -116 86 -239 92 -88 3 -111 1 -168 -19z m309 -18 c55
-24 108 -75 118 -114 3 -14 4 -116 2 -228 -2 -159 -6 -208 -18 -226 l-15 -22
-254 2 -254 3 -15 40 c-10 30 -15 93 -16 242 -1 190 0 203 20 230 24 33 80 67
144 88 68 22 220 15 288 -15z m-727 -616 l36 -6 7 -142 c4 -77 16 -280 26
-451 16 -272 17 -313 4 -333 -14 -22 -18 -22 -214 -22 -196 0 -200 0 -214 23
-17 25 -41 215 -110 868 -7 70 -9 69 222 69 114 0 223 -3 243 -6z m1062 -12
c15 -17 15 -51 -11 -464 -20 -326 -31 -450 -41 -462 -12 -14 -58 -16 -446 -16
-399 0 -433 1 -448 18 -12 13 -19 70 -31 267 -37 596 -38 632 -27 654 12 21
13 21 500 21 458 0 489 -1 504 -18z m520 3 c10 -10 14 -27 11 -52 -3 -21 -18
-157 -34 -303 -57 -511 -64 -562 -78 -576 -10 -11 -59 -14 -223 -14 -186 0
-210 2 -216 17 -3 9 6 217 21 463 15 246 26 452 25 456 -1 5 -1 12 0 17 0 4
109 7 240 7 198 0 242 -3 254 -15z m-1033 -1340 l0 -385 -197 2 -197 3 -8 40
c-4 22 -17 189 -28 370 -19 311 -19 331 -3 343 12 9 74 12 225 12 l208 0 0
-385z m460 313 c0 -149 -23 -654 -31 -675 -8 -23 -11 -23 -198 -23 -143 0
-191 3 -199 13 -8 9 -12 136 -14 385 l-3 372 223 0 222 0 0 -72z"/>
<path d="M1081 2272 c-14 -26 -14 -33 0 -69 10 -27 11 -27 25 -9 18 25 18 57
0 81 -13 18 -14 18 -25 -3z"/>
<path d="M951 2258 c-11 -31 -3 -75 15 -82 20 -8 38 42 27 73 -11 33 -31 37
-42 9z"/>
<path d="M1113 1994 c-15 -20 -40 -51 -55 -68 l-27 -31 -53 53 c-30 28 -57 52
-61 52 -4 0 -7 -10 -7 -21 0 -30 62 -103 101 -120 l33 -13 58 63 c42 47 58 71
58 92 0 39 -13 36 -47 -7z"/>
</g>
</svg>
