<svg width="614" height="609" viewBox="0 0 614 609" fill="none" xmlns="http://www.w3.org/2000/svg">
<path d="M286.77 241.831V187.17H396.24V241.831H286.77Z" stroke="#D900FF" stroke-width="2"/>
<path d="M286.56 160.887L248.528 1H432.471L396.441 160.887H286.56Z" stroke="#D900FF" stroke-width="2"/>
<path d="M414.803 334.253L453.514 372.905L376.109 450.19L337.397 411.539L414.803 334.253Z" stroke="#D900FF" stroke-width="2"/>
<path d="M472.277 391.353L612.397 477.553L482.337 607.411L394.582 468.927L472.277 391.353Z" stroke="#D900FF" stroke-width="2"/>
<path d="M242.208 391.577H187.46V282.28H242.208V391.577Z" stroke="#D900FF" stroke-width="2"/>
<path d="M161.139 391.786L1 429.76V246.104L161.139 282.079V391.786Z" stroke="#D900FF" stroke-width="2"/>
<path d="M329.326 363.845L292.234 326.81L329.326 289.775L366.418 326.81L329.326 363.845Z" stroke="#D900FF" stroke-width="2"/>
</svg>
